<svg width="600" height="150" viewBox="0 0 600 150" fill="none" xmlns="http://www.w3.org/2000/svg">
<path d="M0 0H501L600 75L501 150H0V0Z" fill="#FF4C0B"/>
<path fill-rule="evenodd" clip-rule="evenodd" d="M354 72.9956L376.148 72.695C384.703 77.756 392.359 84.3103 398.951 92.5984C416.002 63.5851 435.592 39.8132 457.125 20H474C443.893 54.3249 419.322 91.0751 399.674 130C389.166 106.88 374.469 87.4171 354 72.9956Z" fill="#FFFF00"/>
<path d="M64.84 100.768C65.864 103.072 66.632 103.072 68.168 101.792C69.384 101.472 69.896 99.808 69.896 97.696C69.896 96.224 69.64 94.56 69.192 93.088C68.872 91.488 68.68 86.816 68.68 82.72C68.68 80.16 68.744 77.856 68.936 76.704V73.632L73.544 81.824C77.64 90.016 78.152 91.296 80.968 90.528C82.504 90.016 84.552 84.384 86.088 79.264C86.856 75.68 89.16 71.584 89.16 74.656C89.672 91.296 89.16 101.024 91.464 102.304C94.28 103.712 94.984 101.664 94.984 99.104C94.984 96.544 94.28 93.472 94.28 92.832V80.032C94.024 76.512 94.024 70.944 94.024 67.36C93.512 60.96 92.488 59.296 89.928 59.296C88.392 59.808 87.368 61.088 84.04 71.072C81.992 75.936 80.2 82.08 80.2 82.08C80.2 82.08 77.384 77.984 74.312 72.608C70.984 67.232 68.68 61.6 67.656 61.088C67.144 61.088 65.864 61.088 65.352 61.6C63.816 62.368 63.816 62.88 63.816 65.696C63.816 67.488 63.816 71.84 63.304 74.656C63.24 75.872 63.176 77.472 63.176 79.264C63.176 87.264 64.008 99.296 64.84 100.768ZM111.187 99.936C115.155 99.232 118.099 96.224 119.443 94.368C121.171 91.936 121.491 90.272 120.275 89.504C119.763 89.184 118.995 88.672 116.947 90.912C115.155 92.832 112.083 95.264 108.627 95.008C107.091 94.88 105.747 94.176 105.491 93.152C105.235 92.128 109.459 91.232 112.339 88.672C115.027 86.24 116.691 84.128 117.139 80.736C117.651 77.088 114.835 74.592 111.187 74.592C103.763 74.592 99.155 83.68 99.155 90.016C99.155 96.288 103.379 100.128 108.947 100.128C109.651 100.128 110.419 100.064 111.187 99.936ZM104.659 88.288C105.043 85.088 106.451 82.912 107.987 81.504C110.803 78.944 112.083 78.88 112.083 79.968C112.083 80.864 111.251 82.528 109.651 84.192C108.691 85.344 106.195 87.584 104.659 88.288ZM133.535 87.648C133.855 90.656 134.495 96.224 135.455 99.04C135.839 100.128 136.927 101.536 138.399 101.536C139.231 101.536 140.191 101.088 141.151 99.936C142.559 98.272 143.903 95.904 144.927 93.6C145.439 92.064 146.463 90.08 146.975 90.08C146.975 89.568 146.975 92.576 147.487 94.624C147.999 99.232 149.535 100.768 151.583 99.744C153.119 98.72 153.119 98.208 152.607 96.672C152.351 96.16 152.223 95.008 152.223 93.472C152.223 91.936 152.351 90.016 152.607 87.968C152.735 86.304 152.799 84.896 152.799 83.68C152.799 79.264 151.967 77.6 149.919 77.536C147.615 77.472 145.951 80.288 142.879 86.944C141.855 90.528 140.319 93.088 139.807 93.088C139.807 93.6 139.807 90.528 139.295 85.92C138.783 75.68 138.719 73.952 135.711 73.696C133.407 73.504 131.743 79.328 130.655 82.656C130.335 83.552 130.143 81.952 130.015 80.16C129.951 78.816 129.759 77.344 129.311 76.704C128.991 75.36 127.775 74.656 126.495 74.656C125.855 74.656 125.215 74.848 124.703 75.168C123.679 76.192 123.679 79.264 123.679 90.528C123.679 91.36 123.551 92.576 123.551 93.856C123.551 96.544 124.063 99.36 126.943 99.04C128.671 98.912 130.015 97.376 130.335 94.624C130.527 92.192 132.831 83.36 133.535 87.648ZM156.673 86.112C156.161 88.8 155.841 91.168 155.841 93.088C155.841 98.144 157.697 100.704 161.473 101.408C164.865 102.304 169.217 99.552 172.097 94.432C173.377 92 174.209 88.672 174.209 85.536C174.209 83.936 174.017 82.4 173.505 80.992C172.097 75.488 169.153 73.312 166.785 72.672C165.761 72.48 164.993 72.416 164.289 72.416C163.073 72.416 162.049 72.736 160.513 73.632C157.633 75.488 157.633 77.6 157.633 78.688C158.145 79.648 157.633 81.952 156.673 86.112ZM167.745 93.024C165.825 95.84 163.905 97.184 162.945 96.736C161.985 96.736 160.769 94.432 160.769 92.576C160.513 89.376 161.281 84.96 162.689 81.696C163.905 79.136 165.825 77.536 166.785 77.792C167.745 78.24 169.665 81.952 169.665 84.704C169.793 85.472 169.857 86.176 169.857 86.816C169.857 88.928 169.217 90.592 167.745 93.024ZM195.487 99.552C192.991 99.104 190.815 100.384 190.815 101.856C190.815 102.56 191.327 103.328 192.543 103.84C193.183 104.16 194.143 104.352 195.231 104.352C200.287 104.352 209.183 101.024 213.599 96.48C215.135 94.88 215.775 93.472 215.775 92.064C215.775 91.168 215.519 90.272 215.071 89.312C214.559 88.032 213.343 87.2 206.111 84.832C198.239 82.336 195.295 80.8 195.295 77.984C195.295 77.28 195.487 76.448 195.807 75.552C197.023 72.416 203.295 66.272 205.919 66.144C207.135 66.08 208.223 66.144 209.375 66.976C210.143 67.68 211.167 68 212.063 68C213.535 68 214.943 67.168 215.327 65.568C215.775 62.176 212.063 60.064 207.839 60.064C206.751 60.064 205.663 60.192 204.575 60.512C199.455 61.856 193.055 67.744 190.751 72.48C189.791 74.464 189.343 76.256 189.343 77.856C189.343 83.04 193.823 86.56 200.095 88.544C204.958 90.08 208.351 90.848 208.351 92.32C208.351 92.896 207.839 93.536 206.687 94.368C204.255 96.032 198.303 100.064 195.487 99.552ZM228.712 105.632C230.696 105.952 231.336 104.864 231.336 103.84C231.336 102.944 230.824 102.048 230.248 101.984C226.856 100.064 226.152 97.44 225.768 92.576C225.64 91.36 225.448 86.944 225.448 82.848C225.448 80.8 225.448 78.944 225.512 77.408C225.64 75.68 226.472 74.592 227.496 74.272C230.312 73.376 236.136 72.48 241.32 72.224C243.368 72.096 245.16 72.48 245.928 72.032C246.44 71.776 246.76 71.264 246.824 70.24C246.696 68.768 244.904 67.552 240.68 67.296C238.44 67.168 235.496 67.296 231.848 67.744C230.44 67.872 229.736 68.128 228.84 68.192C226.792 68.448 226.984 68.128 227.56 65.376C228.008 63.136 228.776 61.088 228.84 59.744C228.968 57.504 227.752 57.056 225.384 57.056C223.336 57.568 222.76 60.832 222.248 64.16L221.288 68.96C221.16 70.304 219.56 70.816 218.28 71.456C215.912 72.8 215.848 73.568 215.72 74.72C215.656 75.936 216.232 76.96 217.896 77.088C219.688 76.768 220.264 77.408 220.008 79.456C219.88 80.48 219.816 81.952 219.816 83.552C219.816 87.84 220.2 93.28 220.648 95.456C221.544 100.32 224.296 104.8 228.712 105.632ZM232.808 91.744C233 99.936 234.472 100.896 237.096 100.064C238.248 99.68 238.504 98.464 238.504 96.8C238.504 95.136 238.248 92.96 238.312 90.656V88.352C238.312 78.24 237.928 75.68 235.816 75.68C235.24 75.68 234.6 75.872 233.768 76.256C232.616 76.96 232.296 79.968 232.296 83.296C232.296 86.56 232.616 89.504 232.808 91.744ZM233.512 62.816C233.96 63.392 234.664 63.648 235.368 63.648C236.008 63.648 236.648 63.456 237.352 63.008C238.888 62.048 240.488 60.96 240.744 58.08C240.808 57.056 239.848 55.776 238.632 55.776C238.056 55.776 237.416 56.096 236.776 56.864C235.752 58.144 235.752 58.272 234.344 58.72C232.744 59.872 232.552 61.664 233.512 62.816ZM243.181 94.176C244.781 97.76 248.237 99.808 252.333 99.808C253.485 99.808 254.765 99.616 255.981 99.296C260.077 98.272 262.893 97.056 266.221 93.664C266.989 92.832 267.309 92.128 267.309 91.552C267.309 90.72 266.669 90.144 265.709 90.144C265.005 90.144 264.109 90.464 263.149 91.104C259.565 93.664 256.749 94.368 254.317 94.368C253.485 94.368 252.653 94.304 251.885 94.176C249.453 93.536 248.301 92.384 248.301 90.464C248.301 89.184 248.812 87.52 249.837 85.472C251.885 81.888 253.933 80.352 255.469 80.864C257.389 80.864 258.669 78.112 258.029 76.256C257.453 74.784 256.621 74.144 255.533 74.144C253.485 74.144 250.605 76.384 247.277 80.352C244.141 84.64 242.797 88.352 242.797 91.488C242.797 92.448 242.924 93.344 243.181 94.176ZM263.981 97.44C263.853 100.128 263.725 102.176 263.725 103.712C263.725 107.168 264.237 108.192 266.029 108.192C267.565 108.192 268.653 106.4 269.165 98.72C269.421 95.904 269.485 95.008 271.277 95.008C271.789 95.008 272.493 95.072 273.389 95.2C275.373 95.584 278.189 95.648 280.365 95.648C284.333 95.648 287.725 94.816 289.069 93.856C290.605 92.832 290.093 91.168 289.261 90.592C288.685 90.208 287.981 90.464 284.333 90.528C279.085 90.592 272.429 89.312 272.493 88.48C272.557 87.328 276.845 83.616 282.925 79.008C288.365 74.848 287.085 72.864 286.637 72.48C285.933 71.904 285.293 71.072 280.941 74.08C276.397 77.216 270.701 81.312 270.189 81.312C269.997 81.12 269.933 80.416 269.933 79.2C269.933 77.088 270.125 73.44 270.125 68.256C270.189 67.488 270.253 66.848 270.253 66.208C270.253 62.048 268.845 60.128 267.053 60.576C265.517 60.576 264.493 62.624 264.493 65.184C264.621 66.208 264.685 68.576 264.685 71.584C264.685 78.88 264.365 90.208 263.981 97.44ZM298.75 99.936C302.718 99.232 305.662 96.224 307.006 94.368C308.734 91.936 309.054 90.272 307.838 89.504C307.326 89.184 306.558 88.672 304.51 90.912C302.718 92.832 299.646 95.264 296.19 95.008C294.654 94.88 293.31 94.176 293.054 93.152C292.798 92.128 297.022 91.232 299.902 88.672C302.59 86.24 304.253 84.128 304.702 80.736C305.214 77.088 302.398 74.592 298.75 74.592C291.326 74.592 286.718 83.68 286.718 90.016C286.718 96.288 290.942 100.128 296.51 100.128C297.214 100.128 297.982 100.064 298.75 99.936ZM292.222 88.288C292.606 85.088 294.014 82.912 295.55 81.504C298.366 78.944 299.646 78.88 299.646 79.968C299.646 80.864 298.814 82.528 297.214 84.192C296.254 85.344 293.758 87.584 292.222 88.288ZM310.072 92.832C311.096 98.976 312.12 100 314.168 99.488C315.704 98.976 316.216 97.952 318.776 89.248C320.824 82.592 321.784 80.992 323.192 79.904C323.896 79.328 324.728 79.072 325.816 79.072C326.584 79.072 327.48 79.2 328.504 79.52C331.64 80.48 332.856 78.624 331.64 76.32C330.296 73.76 326.52 73.248 324.408 73.568C322.168 73.888 318.52 75.68 316.664 80.48C316.024 82.144 315.64 82.848 315.384 82.848C315.128 82.848 314.936 82.08 314.68 81.056C314.168 79.008 312.12 78.496 310.584 79.52C309.944 80.16 309.496 82.528 309.496 85.856C309.496 87.904 309.688 90.272 310.072 92.832Z" fill="#E5E5E5"/>
</svg>
